<svg width="18" height="18" viewBox="0 0 18 18" fill="none" xmlns="http://www.w3.org/2000/svg">
<path d="M8.59688 11.778C9.01528 12.195 9.58197 12.4292 10.1728 12.4292C10.7635 12.4292 11.3302 12.195 11.7486 11.778L12.5366 10.9902C12.955 10.5732 13.5216 10.339 14.1124 10.339C14.7032 10.339 15.2699 10.5732 15.6883 10.9902L17.2642 12.5658C17.4946 12.7587 17.6798 12.9998 17.807 13.272C17.9341 13.5442 18 13.841 18 14.1415C18 14.4419 17.9341 14.7387 17.807 15.0109C17.6798 15.2832 17.4946 15.5242 17.2642 15.7171C13.1376 19.8441 8.38752 17.8836 4.2486 13.7453C0.109687 9.60702 -1.84102 4.86211 2.28664 0.735086C2.47967 0.504907 2.72079 0.319809 2.99305 0.192811C3.2653 0.0658135 3.56208 0 3.86251 0C4.16294 0 4.45972 0.0658135 4.73198 0.192811C5.00424 0.319809 5.24536 0.504907 5.43838 0.735086L7.01426 2.31072C7.43162 2.72891 7.66603 3.29556 7.66603 3.88635C7.66603 4.47713 7.43162 5.04379 7.01426 5.46198L6.22632 6.2498C5.80895 6.66799 5.57455 7.23464 5.57455 7.82543C5.57455 8.41621 5.80895 8.98287 6.22632 9.40106L8.59688 11.778Z" fill="#1F2A37"/>
</svg>
