<svg width="26" height="27" viewBox="0 0 26 27" fill="none" xmlns="http://www.w3.org/2000/svg">
<path d="M13.0013 0.5C5.83466 0.5 0.00393106 6.3307 0.00393106 13.4987C0.00393106 15.3654 0.41873 17.244 1.20673 18.9426C1.36006 19.2666 1.3719 19.6773 1.24124 20.0867L0.120142 23.4213C-0.159858 24.264 0.0574779 25.18 0.689478 25.8106C1.13748 26.2586 1.72923 26.4987 2.33857 26.4987C2.58657 26.4987 2.83607 26.4587 3.08141 26.3774L6.40009 25.2627C6.82409 25.128 7.23609 25.1374 7.56676 25.2974C9.25609 26.0827 11.1347 26.4973 13 26.4973C20.168 26.4973 25.9987 20.6667 25.9987 13.4987C25.9987 6.3307 20.1693 0.5 13.0013 0.5ZM13.0013 24.4973C11.424 24.4973 9.83728 24.1467 8.41995 23.488C7.63461 23.1134 6.7027 23.0666 5.77737 23.3626L2.44664 24.4814C2.27997 24.5374 2.15987 24.452 2.10387 24.396C2.04787 24.34 1.96258 24.2214 2.01858 24.0547L3.14391 20.7067C3.43324 19.796 3.38661 18.864 3.01728 18.0894C2.35461 16.6627 2.00393 15.076 2.00393 13.4973C2.00393 7.43331 6.93733 2.4987 13.0013 2.4987C19.0667 2.4987 24 7.43198 24 13.4973C24 19.5626 19.0667 24.4973 13.0013 24.4973ZM16.4453 10.7067C16.692 12.1094 16.1053 13.3627 14.7933 14.2347C14.052 14.7267 13.9506 14.9773 13.9466 14.9867C13.796 15.3893 13.4068 15.648 12.9961 15.648C12.8868 15.648 12.7773 15.6306 12.6693 15.592C12.156 15.4093 11.8774 14.864 12.0521 14.3467C12.3228 13.5453 13.1145 12.948 13.6865 12.5693C14.5345 12.0067 14.5439 11.4346 14.4772 11.0533C14.3732 10.4653 13.8706 9.96264 13.2813 9.85864C12.8333 9.77864 12.3841 9.89333 12.0375 10.184C11.6961 10.4707 11.5013 10.8893 11.5013 11.3333C11.5013 11.8853 11.0533 12.3333 10.5013 12.3333C9.94933 12.3333 9.50133 11.8853 9.50133 11.3333C9.50133 10.296 9.95731 9.32002 10.752 8.65202C11.5466 7.98535 12.592 7.70669 13.628 7.88802C15.0373 8.13602 16.196 9.29471 16.4453 10.7067ZM14.3601 18.1667C14.3601 18.9027 13.7641 19.5 13.0267 19.5C12.2907 19.5 11.6865 18.9027 11.6865 18.1667C11.6865 17.4307 12.2774 16.8333 13.0134 16.8333H13.0267C13.7627 16.8333 14.3601 17.4307 14.3601 18.1667Z" fill="#1E459C"/>
</svg>
