<svg width="18" height="18" viewBox="0 0 18 18" fill="none" xmlns="http://www.w3.org/2000/svg">
<path d="M9 0C7.21997 0 5.47991 0.527841 3.99987 1.51677C2.51983 2.50571 1.36628 3.91131 0.685088 5.55585C0.00389956 7.20038 -0.17433 9.00998 0.172937 10.7558C0.520203 12.5016 1.37737 14.1053 2.63604 15.364C3.89472 16.6226 5.49836 17.4798 7.24419 17.8271C8.99002 18.1743 10.7996 17.9961 12.4442 17.3149C14.0887 16.6337 15.4943 15.4802 16.4832 14.0001C17.4722 12.5201 18 10.78 18 9C17.9974 6.61385 17.0483 4.32619 15.3611 2.63893C13.6738 0.951673 11.3861 0.00262044 9 0ZM9 14.4C8.822 14.4 8.64799 14.3472 8.49999 14.2483C8.35198 14.1494 8.23663 14.0089 8.16851 13.8444C8.10039 13.68 8.08257 13.499 8.1173 13.3244C8.15202 13.1498 8.23774 12.9895 8.36361 12.8636C8.48947 12.7377 8.64984 12.652 8.82442 12.6173C8.999 12.5826 9.17997 12.6004 9.34442 12.6685C9.50887 12.7366 9.64943 12.852 9.74833 13C9.84722 13.148 9.9 13.322 9.9 13.5C9.9 13.7387 9.80518 13.9676 9.6364 14.1364C9.46762 14.3052 9.2387 14.4 9 14.4ZM9.9 10.3194V10.8C9.9 11.0387 9.80518 11.2676 9.6364 11.4364C9.46762 11.6052 9.2387 11.7 9 11.7C8.76131 11.7 8.53239 11.6052 8.36361 11.4364C8.19482 11.2676 8.1 11.0387 8.1 10.8V9.5238C8.1 9.40261 8.12446 9.28266 8.17194 9.17116C8.21942 9.05965 8.28893 8.95888 8.3763 8.8749C8.46301 8.7904 8.56613 8.72459 8.6793 8.68155C8.79246 8.63852 8.91326 8.61917 9.0342 8.6247C9.2082 8.631 9.38168 8.60209 9.54422 8.53969C9.70677 8.47728 9.85502 8.38268 9.9801 8.26155C10.1052 8.14043 10.2045 7.99528 10.2721 7.83483C10.3397 7.67437 10.3741 7.50191 10.3734 7.3278C10.3872 6.96976 10.2583 6.62088 10.0149 6.35791C9.77152 6.09495 9.43364 5.93944 9.0756 5.9256C8.71756 5.91175 8.36868 6.04071 8.10572 6.28409C7.84276 6.52748 7.68725 6.86536 7.6734 7.2234C7.67056 7.34199 7.64396 7.45881 7.59519 7.56695C7.54641 7.67509 7.47645 7.77235 7.38944 7.85298C7.30243 7.93362 7.20013 7.99599 7.0886 8.0364C6.97707 8.07682 6.85857 8.09447 6.7401 8.0883C6.50183 8.07893 6.27701 7.97538 6.11502 7.8004C5.95302 7.62541 5.8671 7.39329 5.8761 7.155C5.90165 6.57625 6.08631 6.01575 6.40977 5.53515C6.73322 5.05455 7.18295 4.67245 7.70949 4.43088C8.23603 4.1893 8.819 4.09761 9.39427 4.16589C9.96955 4.23416 10.5149 4.45975 10.9702 4.81786C11.4256 5.17596 11.7734 5.65271 11.9754 6.19567C12.1774 6.73863 12.2257 7.32678 12.1151 7.89543C12.0045 8.46409 11.7392 8.99122 11.3484 9.41887C10.9576 9.84652 10.4564 10.1581 9.9 10.3194Z" fill="#1F2A37"/>
</svg>
