<svg width="21" height="18" viewBox="0 0 21 18" fill="none" xmlns="http://www.w3.org/2000/svg">
<path d="M13 17.75C12.586 17.75 12.25 17.414 12.25 17C12.25 16.586 12.586 16.25 13 16.25C13.419 16.25 13.8571 16.019 14.3051 15.564L18.5389 11.32C19.0109 10.852 19.249 10.414 19.25 10.016C19.251 9.615 19.012 9.17202 18.54 8.70002L12.14 2.28999C11.83 1.97499 11.414 1.78798 10.962 1.75898C10.548 1.73198 10.234 1.37498 10.262 0.961985C10.288 0.547985 10.682 0.240034 11.058 0.262034C11.881 0.315034 12.6441 0.661033 13.2061 1.23603L19.601 7.641C20.366 8.405 20.752 9.20603 20.75 10.02C20.749 10.832 20.361 11.627 19.599 12.384L15.371 16.621C14.635 17.368 13.836 17.75 13 17.75ZM15.075 11.853L10.842 16.09C9.63004 17.304 8.37499 17.304 7.16199 16.09L0.760986 9.68299C0.272986 9.19499 -0.000976562 8.53201 -0.000976562 7.84101V2.73603C-0.000976562 1.77703 0.776009 1.00001 1.73401 1.00001H6.83398C7.52398 1.00001 8.18595 1.27401 8.67395 1.76301L15.075 8.16999C16.329 9.42599 16.287 10.639 15.075 11.853ZM4.55005 4.55C4.55005 3.998 4.104 3.55 3.552 3.55H3.54199C2.99199 3.55 2.54895 3.998 2.54895 4.55C2.54895 5.102 3.00103 5.55 3.55103 5.55C4.10403 5.55 4.55005 5.102 4.55005 4.55Z" fill="black"/>
</svg>
